<?xml version="1.0" standalone="no"?>
<!DOCTYPE svg PUBLIC "-//W3C//DTD SVG 20010904//EN"
 "http://www.w3.org/TR/2001/REC-SVG-20010904/DTD/svg10.dtd">
<svg version="1.0" xmlns="http://www.w3.org/2000/svg"
 width="300.000000pt" height="60.000000pt" viewBox="0 0 300.000000 60.000000"
 preserveAspectRatio="xMidYMid meet">

<g transform="translate(0.000000,60.000000) scale(0.100000,-0.100000)"
fill="#000000" stroke="none">
<path d="M706 427 c-21 -12 -47 -38 -57 -57 -38 -71 -13 -157 57 -197 34 -20
53 -23 162 -23 l122 0 0 30 0 30 -121 0 c-120 0 -121 0 -150 29 -39 40 -39 82
0 122 29 29 30 29 150 29 l121 0 0 30 0 30 -122 0 c-109 0 -128 -3 -162 -23z"/>
<path d="M1030 299 l0 -151 168 4 c143 3 172 6 199 22 36 22 59 70 67 136 7
63 31 80 112 80 l64 0 0 30 0 30 -60 0 c-112 0 -164 -40 -176 -137 -5 -39 -14
-64 -30 -80 -22 -22 -30 -23 -154 -23 l-130 0 0 30 0 30 85 0 85 0 0 30 0 30
-85 0 -85 0 0 30 0 30 110 0 110 0 0 30 0 30 -140 0 -140 0 0 -151z"/>
<path d="M1680 300 l0 -150 128 0 c144 0 179 11 220 71 32 46 28 136 -9 175
-41 45 -77 54 -214 54 l-125 0 0 -150z m284 69 c21 -16 26 -29 26 -62 -1 -77
-34 -97 -159 -97 l-91 0 0 90 0 90 99 0 c84 0 102 -3 125 -21z"/>
<path d="M2090 300 l0 -150 140 0 140 0 0 30 0 30 -110 0 -110 0 0 30 0 30 90
0 90 0 0 30 0 30 -90 0 -90 0 0 30 0 30 110 0 110 0 0 30 0 30 -140 0 -140 0
0 -150z"/>
</g>
</svg>
